<svg width="20" height="20" viewBox="0 0 20 20" fill="none" xmlns="http://www.w3.org/2000/svg">
<g clip-path="url(#clip0_1_425)">
<path d="M18.3334 4.31669L8.82508 13.8334L5.29175 10.3L6.46675 9.12502L8.82508 11.4834L17.1584 3.15002L18.3334 4.31669ZM10.0001 16.6667C6.32508 16.6667 3.33341 13.675 3.33341 10C3.33341 6.32502 6.32508 3.33335 10.0001 3.33335C11.3084 3.33335 12.5334 3.71669 13.5667 4.37502L14.7751 3.16669C13.4167 2.22502 11.7751 1.66669 10.0001 1.66669C5.40008 1.66669 1.66675 5.40002 1.66675 10C1.66675 14.6 5.40008 18.3334 10.0001 18.3334C11.4417 18.3334 12.8001 17.9667 13.9834 17.3167L12.7334 16.0667C11.9001 16.45 10.9751 16.6667 10.0001 16.6667ZM15.8334 12.5H13.3334V14.1667H15.8334V16.6667H17.5001V14.1667H20.0001V12.5H17.5001V10H15.8334V12.5Z" fill="#0DB05D"/>
</g>
<defs>
<clipPath id="clip0_1_425">
<rect width="20" height="20" fill="white"/>
</clipPath>
</defs>
</svg>
