<svg width="20" height="20" viewBox="0 0 20 20" fill="none" xmlns="http://www.w3.org/2000/svg">
<g clip-path="url(#clip0_1_4040)">
<path d="M18.3334 4.3165L8.82508 13.8332L5.29175 10.2998L6.46675 9.12484L8.82508 11.4832L17.1584 3.14984L18.3334 4.3165ZM10.0001 16.6665C6.32508 16.6665 3.33341 13.6748 3.33341 9.99984C3.33341 6.32484 6.32508 3.33317 10.0001 3.33317C11.3084 3.33317 12.5334 3.7165 13.5667 4.37484L14.7751 3.1665C13.4167 2.22484 11.7751 1.6665 10.0001 1.6665C5.40008 1.6665 1.66675 5.39984 1.66675 9.99984C1.66675 14.5998 5.40008 18.3332 10.0001 18.3332C11.4417 18.3332 12.8001 17.9665 13.9834 17.3165L12.7334 16.0665C11.9001 16.4498 10.9751 16.6665 10.0001 16.6665ZM15.8334 12.4998H13.3334V14.1665H15.8334V16.6665H17.5001V14.1665H20.0001V12.4998H17.5001V9.99984H15.8334V12.4998Z" fill="#0DB05D"/>
</g>
<defs>
<clipPath id="clip0_1_4040">
<rect width="20" height="20" fill="white"/>
</clipPath>
</defs>
</svg>
