<svg width="20" height="20" viewBox="0 0 20 20" fill="none" xmlns="http://www.w3.org/2000/svg">
<g clip-path="url(#clip0_82_4499)">
<path d="M18.3332 4.31675L8.82484 13.8334L5.2915 10.3001L6.4665 9.12508L8.82484 11.4834L17.1582 3.15008L18.3332 4.31675ZM9.99984 16.6667C6.32484 16.6667 3.33317 13.6751 3.33317 10.0001C3.33317 6.32508 6.32484 3.33341 9.99984 3.33341C11.3082 3.33341 12.5332 3.71675 13.5665 4.37508L14.7748 3.16675C13.4165 2.22508 11.7748 1.66675 9.99984 1.66675C5.39984 1.66675 1.6665 5.40008 1.6665 10.0001C1.6665 14.6001 5.39984 18.3334 9.99984 18.3334C11.4415 18.3334 12.7998 17.9667 13.9832 17.3167L12.7332 16.0667C11.8998 16.4501 10.9748 16.6667 9.99984 16.6667ZM15.8332 12.5001H13.3332V14.1667H15.8332V16.6667H17.4998V14.1667H19.9998V12.5001H17.4998V10.0001H15.8332V12.5001Z" fill="#0DB05D"/>
</g>
<defs>
<clipPath id="clip0_82_4499">
<rect width="20" height="20" fill="white"/>
</clipPath>
</defs>
</svg>
