<svg width="20" height="20" viewBox="0 0 20 20" fill="none" xmlns="http://www.w3.org/2000/svg">
<g clip-path="url(#clip0_20_3104)">
<path d="M18.3332 4.31669L8.82484 13.8334L5.2915 10.3L6.4665 9.12502L8.82484 11.4834L17.1582 3.15002L18.3332 4.31669ZM9.99984 16.6667C6.32484 16.6667 3.33317 13.675 3.33317 10C3.33317 6.32502 6.32484 3.33335 9.99984 3.33335C11.3082 3.33335 12.5332 3.71669 13.5665 4.37502L14.7748 3.16669C13.4165 2.22502 11.7748 1.66669 9.99984 1.66669C5.39984 1.66669 1.6665 5.40002 1.6665 10C1.6665 14.6 5.39984 18.3334 9.99984 18.3334C11.4415 18.3334 12.7998 17.9667 13.9832 17.3167L12.7332 16.0667C11.8998 16.45 10.9748 16.6667 9.99984 16.6667ZM15.8332 12.5H13.3332V14.1667H15.8332V16.6667H17.4998V14.1667H19.9998V12.5H17.4998V10H15.8332V12.5Z" fill="#0DB05D"/>
</g>
<defs>
<clipPath id="clip0_20_3104">
<rect width="20" height="20" fill="white"/>
</clipPath>
</defs>
</svg>
