<svg width="40" height="40" viewBox="0 0 40 40" fill="none" xmlns="http://www.w3.org/2000/svg">
<g clip-path="url(#clip0_78_3287)">
<path d="M18.3333 28.3333C18.3333 29.25 19.0833 30 20 30C20.9167 30 21.6667 29.25 21.6667 28.3333C21.6667 27.4167 20.9167 26.6667 20 26.6667C19.0833 26.6667 18.3333 27.4167 18.3333 28.3333ZM18.3333 5V11.6667H21.6667V8.46667C27.3167 9.28333 31.6667 14.1167 31.6667 20C31.6667 26.45 26.45 31.6667 20 31.6667C13.55 31.6667 8.33333 26.45 8.33333 20C8.33333 17.2 9.31667 14.6333 10.9667 12.6333L20 21.6667L22.35 19.3167L11.0167 7.98333V8.01667C7.36667 10.75 5 15.0833 5 20C5 28.2833 11.7 35 20 35C28.2833 35 35 28.2833 35 20C35 11.7167 28.2833 5 20 5H18.3333ZM30 20C30 19.0833 29.25 18.3333 28.3333 18.3333C27.4167 18.3333 26.6667 19.0833 26.6667 20C26.6667 20.9167 27.4167 21.6667 28.3333 21.6667C29.25 21.6667 30 20.9167 30 20ZM10 20C10 20.9167 10.75 21.6667 11.6667 21.6667C12.5833 21.6667 13.3333 20.9167 13.3333 20C13.3333 19.0833 12.5833 18.3333 11.6667 18.3333C10.75 18.3333 10 19.0833 10 20Z" fill="#323232"/>
</g>
<defs>
<clipPath id="clip0_78_3287">
<rect width="40" height="40" fill="white"/>
</clipPath>
</defs>
</svg>
