<svg width="40" height="40" viewBox="0 0 40 40" fill="none" xmlns="http://www.w3.org/2000/svg">
<g clip-path="url(#clip0_78_3289)">
<path d="M19.9998 3.33325C12.6332 3.33325 6.6665 4.16659 6.6665 9.99992V26.6666C6.6665 28.1333 7.3165 29.4499 8.33317 30.3666V33.3333C8.33317 34.2499 9.08317 34.9999 9.99984 34.9999H11.6665C12.5832 34.9999 13.3332 34.2499 13.3332 33.3333V31.6666H26.6665V33.3333C26.6665 34.2499 27.4165 34.9999 28.3332 34.9999H29.9998C30.9165 34.9999 31.6665 34.2499 31.6665 33.3333V30.3666C32.6832 29.4499 33.3332 28.1333 33.3332 26.6666V9.99992C33.3332 4.16659 27.3665 3.33325 19.9998 3.33325ZM29.4332 8.31658H10.5665C11.4832 7.43325 13.8498 6.66659 19.9998 6.66659C26.1498 6.66659 28.5165 7.43325 29.4332 8.31658ZM29.9998 11.6499V16.6666H9.99984V11.6499H29.9998ZM29.4332 27.8833L28.9498 28.3333H11.0498L10.5665 27.8833C10.3498 27.6999 9.99984 27.2833 9.99984 26.6666V19.9999H29.9998V26.6666C29.9998 27.2833 29.6498 27.6999 29.4332 27.8833Z" fill="#323232"/>
<path d="M14.1665 26.6667C15.5472 26.6667 16.6665 25.5475 16.6665 24.1667C16.6665 22.786 15.5472 21.6667 14.1665 21.6667C12.7858 21.6667 11.6665 22.786 11.6665 24.1667C11.6665 25.5475 12.7858 26.6667 14.1665 26.6667Z" fill="#323232"/>
<path d="M25.8335 26.6667C27.2142 26.6667 28.3335 25.5475 28.3335 24.1667C28.3335 22.786 27.2142 21.6667 25.8335 21.6667C24.4528 21.6667 23.3335 22.786 23.3335 24.1667C23.3335 25.5475 24.4528 26.6667 25.8335 26.6667Z" fill="#323232"/>
</g>
<defs>
<clipPath id="clip0_78_3289">
<rect width="40" height="40" fill="white"/>
</clipPath>
</defs>
</svg>
