<svg width="40" height="40" viewBox="0 0 40 40" fill="none" xmlns="http://www.w3.org/2000/svg">
<g clip-path="url(#clip0_78_3284)">
<path d="M20.0002 3.33325C13.5502 3.33325 8.3335 8.54992 8.3335 14.9999C8.3335 23.7499 20.0002 36.6666 20.0002 36.6666C20.0002 36.6666 31.6668 23.7499 31.6668 14.9999C31.6668 8.54992 26.4502 3.33325 20.0002 3.33325ZM11.6668 14.9999C11.6668 10.3999 15.4002 6.66659 20.0002 6.66659C24.6002 6.66659 28.3335 10.3999 28.3335 14.9999C28.3335 19.7999 23.5335 26.9832 20.0002 31.4666C16.5335 27.0166 11.6668 19.7499 11.6668 14.9999Z" fill="#323232"/>
<path d="M20.0002 19.1666C22.3013 19.1666 24.1668 17.3011 24.1668 14.9999C24.1668 12.6987 22.3013 10.8333 20.0002 10.8333C17.699 10.8333 15.8335 12.6987 15.8335 14.9999C15.8335 17.3011 17.699 19.1666 20.0002 19.1666Z" fill="#323232"/>
</g>
<defs>
<clipPath id="clip0_78_3284">
<rect width="40" height="40" fill="white"/>
</clipPath>
</defs>
</svg>
