<svg width="35" height="47" viewBox="0 0 35 47" fill="none" xmlns="http://www.w3.org/2000/svg">
<g filter="url(#filter0_f_117_807)">
<ellipse cx="12" cy="29" rx="4" ry="2" fill="black" fill-opacity="0.12"/>
</g>
<mask id="path-2-outside-1_117_807" maskUnits="userSpaceOnUse" x="1.91699" y="1.91663" width="32" height="40" fill="black">
<rect fill="white" x="1.91699" y="1.91663" width="32" height="40"/>
<path fill-rule="evenodd" clip-rule="evenodd" d="M26.1278 29.2587C29.7395 26.6043 32.0837 22.3259 32.0837 17.5C32.0837 9.44581 25.5545 2.91663 17.5003 2.91663C9.44617 2.91663 2.91699 9.44581 2.91699 17.5C2.91699 22.3259 5.26116 26.6044 8.87296 29.2588C11.6176 31.3269 15.4863 34.5895 16.3756 39.8409C16.4698 40.3972 16.9361 40.8289 17.5003 40.8289C18.0645 40.8289 18.5308 40.3972 18.625 39.8409C19.5143 34.5894 23.3832 31.3269 26.1278 29.2587Z"/>
</mask>
<path fill-rule="evenodd" clip-rule="evenodd" d="M26.1278 29.2587C29.7395 26.6043 32.0837 22.3259 32.0837 17.5C32.0837 9.44581 25.5545 2.91663 17.5003 2.91663C9.44617 2.91663 2.91699 9.44581 2.91699 17.5C2.91699 22.3259 5.26116 26.6044 8.87296 29.2588C11.6176 31.3269 15.4863 34.5895 16.3756 39.8409C16.4698 40.3972 16.9361 40.8289 17.5003 40.8289C18.0645 40.8289 18.5308 40.3972 18.625 39.8409C19.5143 34.5894 23.3832 31.3269 26.1278 29.2587Z" fill="#EA352B"/>
<path d="M26.1278 29.2587L25.5355 28.4529L25.526 28.4601L26.1278 29.2587ZM8.87296 29.2588L9.4748 28.4601L9.46516 28.453L8.87296 29.2588ZM16.3756 39.8409L17.3616 39.674L16.3756 39.8409ZM18.625 39.8409L17.6391 39.674L18.625 39.8409ZM26.72 30.0645C30.5771 27.2298 33.0837 22.6575 33.0837 17.5H31.0837C31.0837 21.9943 28.902 25.9789 25.5356 28.453L26.72 30.0645ZM33.0837 17.5C33.0837 8.89352 26.1068 1.91663 17.5003 1.91663V3.91663C25.0022 3.91663 31.0837 9.99809 31.0837 17.5H33.0837ZM17.5003 1.91663C8.89389 1.91663 1.91699 8.89352 1.91699 17.5H3.91699C3.91699 9.99809 9.99846 3.91663 17.5003 3.91663V1.91663ZM1.91699 17.5C1.91699 22.6576 4.42362 27.2299 8.28076 30.0646L9.46516 28.453C6.09871 25.9789 3.91699 21.9943 3.91699 17.5H1.91699ZM17.3616 39.674C16.4019 34.0068 12.2334 30.5389 9.47476 28.4602L8.27116 30.0575C11.0017 32.115 14.5707 35.1721 15.3897 40.0079L17.3616 39.674ZM17.5003 39.8289C17.4803 39.8289 17.4558 39.8226 17.4275 39.7973C17.3969 39.77 17.3705 39.7268 17.3616 39.674L15.3897 40.0079C15.5573 40.998 16.4019 41.8289 17.5003 41.8289V39.8289ZM17.6391 39.674C17.6301 39.7268 17.6038 39.77 17.5732 39.7973C17.5448 39.8226 17.5204 39.8289 17.5003 39.8289V41.8289C18.5987 41.8289 19.4433 40.998 19.611 40.0079L17.6391 39.674ZM25.526 28.4601C22.7673 30.5388 18.5988 34.0068 17.6391 39.674L19.611 40.0079C20.4299 35.172 23.999 32.1149 26.7296 30.0574L25.526 28.4601Z" fill="url(#paint0_linear_117_807)" mask="url(#path-2-outside-1_117_807)"/>
<defs>
<filter id="filter0_f_117_807" x="6" y="25" width="12" height="8" filterUnits="userSpaceOnUse" color-interpolation-filters="sRGB">
<feFlood flood-opacity="0" result="BackgroundImageFix"/>
<feBlend mode="normal" in="SourceGraphic" in2="BackgroundImageFix" result="shape"/>
<feGaussianBlur stdDeviation="1" result="effect1_foregroundBlur_117_807"/>
</filter>
<linearGradient id="paint0_linear_117_807" x1="17.5003" y1="2.91663" x2="17.5003" y2="40.8289" gradientUnits="userSpaceOnUse">
<stop stop-color="white"/>
<stop offset="1" stop-color="white" stop-opacity="0.35"/>
</linearGradient>
</defs>
</svg>
