<svg width="50" height="50" viewBox="0 0 50 50" fill="none" xmlns="http://www.w3.org/2000/svg">
<path fill-rule="evenodd" clip-rule="evenodd" d="M49.5424 16.0826C50.1525 16.6928 50.1525 17.6822 49.5424 18.2924L40.1674 27.6674C39.8743 27.9604 39.4769 28.125 39.0625 28.125C38.6481 28.125 38.2507 27.9604 37.9576 27.6674L33.2701 22.9799C32.66 22.3697 32.66 21.3803 33.2701 20.7701C33.8803 20.16 34.8697 20.16 35.4799 20.7701L39.0625 24.3528L47.3326 16.0826C47.9428 15.4725 48.9322 15.4725 49.5424 16.0826Z" fill="black"/>
<path d="M3.125 43.75C3.125 43.75 0 43.75 0 40.625C0 37.5 3.125 28.125 18.75 28.125C34.375 28.125 37.5 37.5 37.5 40.625C37.5 43.75 34.375 43.75 34.375 43.75H3.125Z" fill="black"/>
<path d="M18.75 25C23.9277 25 28.125 20.8027 28.125 15.625C28.125 10.4473 23.9277 6.25 18.75 6.25C13.5723 6.25 9.375 10.4473 9.375 15.625C9.375 20.8027 13.5723 25 18.75 25Z" fill="black"/>
</svg>
