<svg width="24" height="24" viewBox="0 0 24 24" fill="none" xmlns="http://www.w3.org/2000/svg">
<g clip-path="url(#clip0_1_4032)">
<path fill-rule="evenodd" clip-rule="evenodd" d="M14.9579 7.40969C17.2465 9.80618 17.159 13.6042 14.7625 15.8927C12.366 18.1813 8.56804 18.0938 6.27947 15.6973C3.99091 13.3008 4.07839 9.50285 6.47488 7.21429C8.87136 4.92572 12.6693 5.01321 14.9579 7.40969ZM16.8242 16.6037C19.3384 13.5224 19.2218 8.97881 16.4043 6.02842C13.3529 2.83311 8.28892 2.71646 5.09361 5.76788C1.89829 8.8193 1.78165 13.8833 4.83307 17.0786C7.6506 20.029 12.184 20.3546 15.3778 17.985L17.4925 20.1994C17.8739 20.5988 18.5069 20.6134 18.9063 20.2319C19.3057 19.8505 19.3203 19.2175 18.9389 18.8181L16.8242 16.6037Z" fill="#B2B2B2"/>
</g>
<defs>
<clipPath id="clip0_1_4032">
<rect width="24" height="24" fill="white"/>
</clipPath>
</defs>
</svg>
