<svg width="24" height="24" viewBox="0 0 24 24" fill="none" xmlns="http://www.w3.org/2000/svg">
<g clip-path="url(#clip0_1_417)">
<path fill-rule="evenodd" clip-rule="evenodd" d="M14.958 7.40975C17.2466 9.80624 17.1591 13.6042 14.7626 15.8928C12.3661 18.1813 8.56816 18.0939 6.2796 15.6974C3.99103 13.3009 4.07852 9.50292 6.475 7.21435C8.87148 4.92578 12.6695 5.01327 14.958 7.40975ZM16.8244 16.6038C19.3385 13.5224 19.222 8.97887 16.4044 6.02848C13.353 2.83317 8.28904 2.71652 5.09373 5.76794C1.89842 8.81936 1.78177 13.8833 4.83319 17.0787C7.65072 20.029 12.1841 20.3546 15.378 17.9851L17.4926 20.1994C17.874 20.5988 18.507 20.6134 18.9064 20.232C19.3059 19.8506 19.3204 19.2176 18.939 18.8182L16.8244 16.6038Z" fill="#B2B2B2"/>
</g>
<defs>
<clipPath id="clip0_1_417">
<rect width="24" height="24" fill="white"/>
</clipPath>
</defs>
</svg>
