<svg width="24" height="24" viewBox="0 0 24 24" fill="none" xmlns="http://www.w3.org/2000/svg">
<g clip-path="url(#clip0_18_1096)">
<path fill-rule="evenodd" clip-rule="evenodd" d="M14.958 7.40969C17.2465 9.80618 17.159 13.6042 14.7626 15.8927C12.3661 18.1813 8.5681 18.0938 6.27954 15.6973C3.99097 13.3008 4.07846 9.50285 6.47494 7.21429C8.87142 4.92572 12.6694 5.01321 14.958 7.40969ZM16.8243 16.6037C19.3384 13.5224 19.2219 8.97881 16.4044 6.02842C13.353 2.83311 8.28898 2.71646 5.09367 5.76788C1.89836 8.8193 1.78171 13.8833 4.83313 17.0786C7.65066 20.029 12.184 20.3546 15.3779 17.985L17.4925 20.1994C17.874 20.5988 18.507 20.6134 18.9064 20.2319C19.3058 19.8505 19.3204 19.2175 18.9389 18.8181L16.8243 16.6037Z" fill="#B2B2B2"/>
</g>
<defs>
<clipPath id="clip0_18_1096">
<rect width="24" height="24" fill="white"/>
</clipPath>
</defs>
</svg>
