<svg width="24" height="24" viewBox="0 0 24 24" fill="none" xmlns="http://www.w3.org/2000/svg">
<g clip-path="url(#clip0_18_1651)">
<path fill-rule="evenodd" clip-rule="evenodd" d="M14.9575 7.40975C17.2461 9.80624 17.1586 13.6042 14.7621 15.8928C12.3657 18.1813 8.56767 18.0939 6.27911 15.6974C3.99054 13.3009 4.07803 9.50292 6.47451 7.21435C8.87099 4.92578 12.669 5.01327 14.9575 7.40975ZM16.8239 16.6038C19.338 13.5224 19.2215 8.97887 16.4039 6.02848C13.3525 2.83317 8.28855 2.71652 5.09324 5.76794C1.89793 8.81936 1.78128 13.8833 4.8327 17.0787C7.65023 20.029 12.1836 20.3546 15.3775 17.9851L17.4921 20.1994C17.8735 20.5988 18.5065 20.6134 18.906 20.232C19.3054 19.8506 19.3199 19.2176 18.9385 18.8182L16.8239 16.6038Z" fill="#B2B2B2"/>
</g>
<defs>
<clipPath id="clip0_18_1651">
<rect width="24" height="24" fill="white"/>
</clipPath>
</defs>
</svg>
