<svg width="30" height="20" viewBox="0 0 30 20" fill="none" xmlns="http://www.w3.org/2000/svg">
<path d="M21.8182 0H2.72727C1.22727 0 0 1.21364 0 2.72727V15H2.72727C2.72727 17.25 4.55455 19.0909 6.81818 19.0909C9.08182 19.0909 10.9091 17.25 10.9091 15H18.4091C18.4091 17.25 20.2364 19.0909 22.5 19.0909C24.7636 19.0909 26.5909 17.25 26.5909 15H30V8.18182L21.8182 0ZM2.72727 8.18182V2.72727H8.18182V8.18182H2.72727ZM6.81818 17.0455C5.68636 17.0455 4.77273 16.1318 4.77273 15C4.77273 13.8682 5.68636 12.9545 6.81818 12.9545C7.95 12.9545 8.86364 13.8682 8.86364 15C8.86364 16.1318 7.95 17.0455 6.81818 17.0455ZM16.3636 8.18182H10.9091V2.72727H16.3636V8.18182ZM22.5 17.0455C21.3682 17.0455 20.4545 16.1318 20.4545 15C20.4545 13.8682 21.3682 12.9545 22.5 12.9545C23.6318 12.9545 24.5455 13.8682 24.5455 15C24.5455 16.1318 23.6318 17.0455 22.5 17.0455ZM19.0909 8.18182V2.72727H20.4545L25.9091 8.18182H19.0909Z" fill="#0DB05D"/>
</svg>
