<svg width="24" height="28" viewBox="0 0 24 28" fill="none" xmlns="http://www.w3.org/2000/svg">
<path d="M20.2105 0V3.78947H24V6.31579H20.2105V10.1053H17.6842V6.31579H13.8947V3.78947H17.6842V0H20.2105ZM10.1053 15.1579C11.4947 15.1579 12.6316 14.0211 12.6316 12.6316C12.6316 11.2421 11.4947 10.1053 10.1053 10.1053C8.71579 10.1053 7.57895 11.2421 7.57895 12.6316C7.57895 14.0211 8.71579 15.1579 10.1053 15.1579ZM12.6316 2.84211V7.57895H16.4211V11.3684H20.1095C20.1726 11.8611 20.2105 12.3663 20.2105 12.8842C20.2105 17.0779 16.8379 22.0421 10.1053 27.7895C3.37263 22.0421 0 17.0779 0 12.8842C0 6.59368 4.8 2.52632 10.1053 2.52632C10.9642 2.52632 11.8105 2.62737 12.6316 2.84211Z" fill="#323232"/>
</svg>
