<svg width="30" height="30" viewBox="0 0 30 30" fill="none" xmlns="http://www.w3.org/2000/svg">
<path d="M30 15C30 23.2843 23.2843 30 15 30C6.71573 30 0 23.2843 0 15C0 6.71573 6.71573 0 15 0C23.2843 0 30 6.71573 30 15ZM10.0379 8.71209C9.6718 8.34597 9.0782 8.34597 8.71209 8.71209C8.34597 9.0782 8.34597 9.6718 8.71209 10.0379L13.6742 15L8.71209 19.9621C8.34597 20.3282 8.34597 20.9218 8.71209 21.2879C9.0782 21.654 9.6718 21.654 10.0379 21.2879L15 16.3258L19.9621 21.2879C20.3282 21.654 20.9218 21.654 21.2879 21.2879C21.654 20.9218 21.654 20.3282 21.2879 19.9621L16.3258 15L21.2879 10.0379C21.654 9.6718 21.654 9.0782 21.2879 8.71209C20.9218 8.34597 20.3282 8.34597 19.9621 8.71209L15 13.6742L10.0379 8.71209Z" fill="white"/>
</svg>
